<?xml version="1.0" encoding="utf-8" standalone="no"?>
<!DOCTYPE svg PUBLIC "-//W3C//DTD SVG 1.1//EN"
  "http://www.w3.org/Graphics/SVG/1.1/DTD/svg11.dtd">
<!-- Created with matplotlib (https://matplotlib.org/) -->
<svg height="216pt" version="1.1" viewBox="0 0 216 216" width="216pt" xmlns="http://www.w3.org/2000/svg" xmlns:xlink="http://www.w3.org/1999/xlink">
 <defs>
  <style type="text/css">
*{stroke-linecap:butt;stroke-linejoin:round;}
  </style>
 </defs>
 <g id="figure_1">
  <g id="patch_1">
   <path d="M 0 216 
L 216 216 
L 216 0 
L 0 0 
z
" style="fill:#ffffff;"/>
  </g>
  <g id="axes_1">
   <g id="patch_2">
    <path d="M 27 189 
L 194.4 189 
L 194.4 25.92 
L 27 25.92 
z
" style="fill:#ffffff;"/>
   </g>
   <g id="PathCollection_1">
    <defs>
     <path d="M 0 2.236068 
C 0.593012 2.236068 1.161816 2.000462 1.581139 1.581139 
C 2.000462 1.161816 2.236068 0.593012 2.236068 0 
C 2.236068 -0.593012 2.000462 -1.161816 1.581139 -1.581139 
C 1.161816 -2.000462 0.593012 -2.236068 0 -2.236068 
C -0.593012 -2.236068 -1.161816 -2.000462 -1.581139 -1.581139 
C -2.000462 -1.161816 -2.236068 -0.593012 -2.236068 0 
C -2.236068 0.593012 -2.000462 1.161816 -1.581139 1.581139 
C -1.161816 2.000462 -0.593012 2.236068 0 2.236068 
z
" id="mea93b67759" style="stroke:#ffa500;"/>
    </defs>
    <g clip-path="url(#p32db4fba27)">
     <use style="fill:#ffa500;stroke:#ffa500;" x="186.194316" xlink:href="#mea93b67759" y="181.355485"/>
     <use style="fill:#ffa500;stroke:#ffa500;" x="35.205684" xlink:href="#mea93b67759" y="181.355165"/>
     <use style="fill:#ffa500;stroke:#ffa500;" x="110.700094" xlink:href="#mea93b67759" y="33.564515"/>
    </g>
   </g>
   <g id="PathCollection_2">
    <defs>
     <path d="M 0 2.236068 
C 0.593012 2.236068 1.161816 2.000462 1.581139 1.581139 
C 2.000462 1.161816 2.236068 0.593012 2.236068 0 
C 2.236068 -0.593012 2.000462 -1.161816 1.581139 -1.581139 
C 1.161816 -2.000462 0.593012 -2.236068 0 -2.236068 
C -0.593012 -2.236068 -1.161816 -2.000462 -1.581139 -1.581139 
C -2.000462 -1.161816 -2.236068 -0.593012 -2.236068 0 
C -2.236068 0.593012 -2.000462 1.161816 -1.581139 1.581139 
C -1.161816 2.000462 -0.593012 2.236068 0 2.236068 
z
" id="m3ccde5fd1f" style="stroke:#1f77b4;"/>
    </defs>
    <g clip-path="url(#p32db4fba27)">
     <use style="fill:#1f77b4;stroke:#1f77b4;" x="170.726319" xlink:href="#m3ccde5fd1f" y="115.381962"/>
     <use style="fill:#1f77b4;stroke:#1f77b4;" x="142.249081" xlink:href="#m3ccde5fd1f" y="113.540287"/>
     <use style="fill:#1f77b4;stroke:#1f77b4;" x="77.721519" xlink:href="#m3ccde5fd1f" y="143.280845"/>
     <use style="fill:#1f77b4;stroke:#1f77b4;" x="156.769458" xlink:href="#m3ccde5fd1f" y="139.314628"/>
     <use style="fill:#1f77b4;stroke:#1f77b4;" x="133.594322" xlink:href="#m3ccde5fd1f" y="136.084748"/>
     <use style="fill:#1f77b4;stroke:#1f77b4;" x="119.154923" xlink:href="#m3ccde5fd1f" y="100.685417"/>
     <use style="fill:#1f77b4;stroke:#1f77b4;" x="167.740413" xlink:href="#m3ccde5fd1f" y="134.435921"/>
     <use style="fill:#1f77b4;stroke:#1f77b4;" x="65.488652" xlink:href="#m3ccde5fd1f" y="120.950721"/>
     <use style="fill:#1f77b4;stroke:#1f77b4;" x="79.152737" xlink:href="#m3ccde5fd1f" y="113.539771"/>
     <use style="fill:#1f77b4;stroke:#1f77b4;" x="53.658986" xlink:href="#m3ccde5fd1f" y="134.434174"/>
     <use style="fill:#1f77b4;stroke:#1f77b4;" x="85.022604" xlink:href="#m3ccde5fd1f" y="102.33294"/>
     <use style="fill:#1f77b4;stroke:#1f77b4;" x="98.145242" xlink:href="#m3ccde5fd1f" y="108.458376"/>
     <use style="fill:#1f77b4;stroke:#1f77b4;" x="70.470297" xlink:href="#m3ccde5fd1f" y="130.176123"/>
     <use style="fill:#1f77b4;stroke:#1f77b4;" x="50.677099" xlink:href="#m3ccde5fd1f" y="115.380402"/>
     <use style="fill:#1f77b4;stroke:#1f77b4;" x="150.604963" xlink:href="#m3ccde5fd1f" y="105.597262"/>
     <use style="fill:#1f77b4;stroke:#1f77b4;" x="46.220798" xlink:href="#m3ccde5fd1f" y="121.950459"/>
     <use style="fill:#1f77b4;stroke:#1f77b4;" x="131.083436" xlink:href="#m3ccde5fd1f" y="123.528925"/>
     <use style="fill:#1f77b4;stroke:#1f77b4;" x="175.181178" xlink:href="#m3ccde5fd1f" y="121.952514"/>
     <use style="fill:#1f77b4;stroke:#1f77b4;" x="70.799616" xlink:href="#m3ccde5fd1f" y="105.596448"/>
     <use style="fill:#1f77b4;stroke:#1f77b4;" x="110.698641" xlink:href="#m3ccde5fd1f" y="146.945397"/>
     <use style="fill:#1f77b4;stroke:#1f77b4;" x="136.382065" xlink:href="#m3ccde5fd1f" y="102.333505"/>
     <use style="fill:#1f77b4;stroke:#1f77b4;" x="48.260568" xlink:href="#m3ccde5fd1f" y="128.276918"/>
     <use style="fill:#1f77b4;stroke:#1f77b4;" x="162.414772" xlink:href="#m3ccde5fd1f" y="110.024715"/>
     <use style="fill:#1f77b4;stroke:#1f77b4;" x="90.317392" xlink:href="#m3ccde5fd1f" y="123.528748"/>
     <use style="fill:#1f77b4;stroke:#1f77b4;" x="155.912876" xlink:href="#m3ccde5fd1f" y="120.951688"/>
     <use style="fill:#1f77b4;stroke:#1f77b4;" x="150.930248" xlink:href="#m3ccde5fd1f" y="130.177026"/>
     <use style="fill:#1f77b4;stroke:#1f77b4;" x="110.699785" xlink:href="#m3ccde5fd1f" y="139.596595"/>
     <use style="fill:#1f77b4;stroke:#1f77b4;" x="110.700431" xlink:href="#m3ccde5fd1f" y="129.869697"/>
     <use style="fill:#1f77b4;stroke:#1f77b4;" x="123.256695" xlink:href="#m3ccde5fd1f" y="108.458699"/>
     <use style="fill:#1f77b4;stroke:#1f77b4;" x="143.676306" xlink:href="#m3ccde5fd1f" y="143.281835"/>
     <use style="fill:#1f77b4;stroke:#1f77b4;" x="93.34495" xlink:href="#m3ccde5fd1f" y="145.599353"/>
     <use style="fill:#1f77b4;stroke:#1f77b4;" x="64.629147" xlink:href="#m3ccde5fd1f" y="139.313278"/>
     <use style="fill:#1f77b4;stroke:#1f77b4;" x="128.052659" xlink:href="#m3ccde5fd1f" y="145.599902"/>
     <use style="fill:#1f77b4;stroke:#1f77b4;" x="87.805702" xlink:href="#m3ccde5fd1f" y="136.084129"/>
     <use style="fill:#1f77b4;stroke:#1f77b4;" x="110.700405" xlink:href="#m3ccde5fd1f" y="117.121281"/>
     <use style="fill:#1f77b4;stroke:#1f77b4;" x="173.140214" xlink:href="#m3ccde5fd1f" y="128.278962"/>
     <use style="fill:#1f77b4;stroke:#1f77b4;" x="102.249475" xlink:href="#m3ccde5fd1f" y="100.68528"/>
     <use style="fill:#1f77b4;stroke:#1f77b4;" x="58.989285" xlink:href="#m3ccde5fd1f" y="110.023486"/>
    </g>
   </g>
   <g id="matplotlib.axis_1">
    <g id="xtick_1">
     <g id="line2d_1">
      <defs>
       <path d="M 0 0 
L 0 3.5 
" id="m702e598ca4" style="stroke:#000000;stroke-width:0.8;"/>
      </defs>
      <g>
       <use style="stroke:#000000;stroke-width:0.8;" x="66.037487" xlink:href="#m702e598ca4" y="189"/>
      </g>
     </g>
     <g id="text_1">
      <!-- −1 -->
      <defs>
       <path d="M 10.59375 35.5 
L 73.1875 35.5 
L 73.1875 27.203125 
L 10.59375 27.203125 
z
" id="DejaVuSans-8722"/>
       <path d="M 12.40625 8.296875 
L 28.515625 8.296875 
L 28.515625 63.921875 
L 10.984375 60.40625 
L 10.984375 69.390625 
L 28.421875 72.90625 
L 38.28125 72.90625 
L 38.28125 8.296875 
L 54.390625 8.296875 
L 54.390625 0 
L 12.40625 0 
z
" id="DejaVuSans-49"/>
      </defs>
      <g transform="translate(58.666393 203.598437)scale(0.1 -0.1)">
       <use xlink:href="#DejaVuSans-8722"/>
       <use x="83.789062" xlink:href="#DejaVuSans-49"/>
      </g>
     </g>
    </g>
    <g id="xtick_2">
     <g id="line2d_2">
      <g>
       <use style="stroke:#000000;stroke-width:0.8;" x="110.700583" xlink:href="#m702e598ca4" y="189"/>
      </g>
     </g>
     <g id="text_2">
      <!-- 0 -->
      <defs>
       <path d="M 31.78125 66.40625 
Q 24.171875 66.40625 20.328125 58.90625 
Q 16.5 51.421875 16.5 36.375 
Q 16.5 21.390625 20.328125 13.890625 
Q 24.171875 6.390625 31.78125 6.390625 
Q 39.453125 6.390625 43.28125 13.890625 
Q 47.125 21.390625 47.125 36.375 
Q 47.125 51.421875 43.28125 58.90625 
Q 39.453125 66.40625 31.78125 66.40625 
z
M 31.78125 74.21875 
Q 44.046875 74.21875 50.515625 64.515625 
Q 56.984375 54.828125 56.984375 36.375 
Q 56.984375 17.96875 50.515625 8.265625 
Q 44.046875 -1.421875 31.78125 -1.421875 
Q 19.53125 -1.421875 13.0625 8.265625 
Q 6.59375 17.96875 6.59375 36.375 
Q 6.59375 54.828125 13.0625 64.515625 
Q 19.53125 74.21875 31.78125 74.21875 
z
" id="DejaVuSans-48"/>
      </defs>
      <g transform="translate(107.519333 203.598437)scale(0.1 -0.1)">
       <use xlink:href="#DejaVuSans-48"/>
      </g>
     </g>
    </g>
    <g id="xtick_3">
     <g id="line2d_3">
      <g>
       <use style="stroke:#000000;stroke-width:0.8;" x="155.363679" xlink:href="#m702e598ca4" y="189"/>
      </g>
     </g>
     <g id="text_3">
      <!-- 1 -->
      <g transform="translate(152.182429 203.598437)scale(0.1 -0.1)">
       <use xlink:href="#DejaVuSans-49"/>
      </g>
     </g>
    </g>
   </g>
   <g id="matplotlib.axis_2">
    <g id="ytick_1">
     <g id="line2d_4">
      <defs>
       <path d="M 0 0 
L -3.5 0 
" id="m3c9d2669c1" style="stroke:#000000;stroke-width:0.8;"/>
      </defs>
      <g>
       <use style="stroke:#000000;stroke-width:0.8;" x="27" xlink:href="#m3c9d2669c1" y="165.90096"/>
      </g>
     </g>
     <g id="text_4">
      <!-- 0 -->
      <g transform="translate(13.6375 169.700179)scale(0.1 -0.1)">
       <use xlink:href="#DejaVuSans-48"/>
      </g>
     </g>
    </g>
    <g id="ytick_2">
     <g id="line2d_5">
      <g>
       <use style="stroke:#000000;stroke-width:0.8;" x="27" xlink:href="#m3c9d2669c1" y="132.091594"/>
      </g>
     </g>
     <g id="text_5">
      <!-- 2 -->
      <defs>
       <path d="M 19.1875 8.296875 
L 53.609375 8.296875 
L 53.609375 0 
L 7.328125 0 
L 7.328125 8.296875 
Q 12.9375 14.109375 22.625 23.890625 
Q 32.328125 33.6875 34.8125 36.53125 
Q 39.546875 41.84375 41.421875 45.53125 
Q 43.3125 49.21875 43.3125 52.78125 
Q 43.3125 58.59375 39.234375 62.25 
Q 35.15625 65.921875 28.609375 65.921875 
Q 23.96875 65.921875 18.8125 64.3125 
Q 13.671875 62.703125 7.8125 59.421875 
L 7.8125 69.390625 
Q 13.765625 71.78125 18.9375 73 
Q 24.125 74.21875 28.421875 74.21875 
Q 39.75 74.21875 46.484375 68.546875 
Q 53.21875 62.890625 53.21875 53.421875 
Q 53.21875 48.921875 51.53125 44.890625 
Q 49.859375 40.875 45.40625 35.40625 
Q 44.1875 33.984375 37.640625 27.21875 
Q 31.109375 20.453125 19.1875 8.296875 
z
" id="DejaVuSans-50"/>
      </defs>
      <g transform="translate(13.6375 135.890813)scale(0.1 -0.1)">
       <use xlink:href="#DejaVuSans-50"/>
      </g>
     </g>
    </g>
    <g id="ytick_3">
     <g id="line2d_6">
      <g>
       <use style="stroke:#000000;stroke-width:0.8;" x="27" xlink:href="#m3c9d2669c1" y="98.282229"/>
      </g>
     </g>
     <g id="text_6">
      <!-- 4 -->
      <defs>
       <path d="M 37.796875 64.3125 
L 12.890625 25.390625 
L 37.796875 25.390625 
z
M 35.203125 72.90625 
L 47.609375 72.90625 
L 47.609375 25.390625 
L 58.015625 25.390625 
L 58.015625 17.1875 
L 47.609375 17.1875 
L 47.609375 0 
L 37.796875 0 
L 37.796875 17.1875 
L 4.890625 17.1875 
L 4.890625 26.703125 
z
" id="DejaVuSans-52"/>
      </defs>
      <g transform="translate(13.6375 102.081447)scale(0.1 -0.1)">
       <use xlink:href="#DejaVuSans-52"/>
      </g>
     </g>
    </g>
    <g id="ytick_4">
     <g id="line2d_7">
      <g>
       <use style="stroke:#000000;stroke-width:0.8;" x="27" xlink:href="#m3c9d2669c1" y="64.472863"/>
      </g>
     </g>
     <g id="text_7">
      <!-- 6 -->
      <defs>
       <path d="M 33.015625 40.375 
Q 26.375 40.375 22.484375 35.828125 
Q 18.609375 31.296875 18.609375 23.390625 
Q 18.609375 15.53125 22.484375 10.953125 
Q 26.375 6.390625 33.015625 6.390625 
Q 39.65625 6.390625 43.53125 10.953125 
Q 47.40625 15.53125 47.40625 23.390625 
Q 47.40625 31.296875 43.53125 35.828125 
Q 39.65625 40.375 33.015625 40.375 
z
M 52.59375 71.296875 
L 52.59375 62.3125 
Q 48.875 64.0625 45.09375 64.984375 
Q 41.3125 65.921875 37.59375 65.921875 
Q 27.828125 65.921875 22.671875 59.328125 
Q 17.53125 52.734375 16.796875 39.40625 
Q 19.671875 43.65625 24.015625 45.921875 
Q 28.375 48.1875 33.59375 48.1875 
Q 44.578125 48.1875 50.953125 41.515625 
Q 57.328125 34.859375 57.328125 23.390625 
Q 57.328125 12.15625 50.6875 5.359375 
Q 44.046875 -1.421875 33.015625 -1.421875 
Q 20.359375 -1.421875 13.671875 8.265625 
Q 6.984375 17.96875 6.984375 36.375 
Q 6.984375 53.65625 15.1875 63.9375 
Q 23.390625 74.21875 37.203125 74.21875 
Q 40.921875 74.21875 44.703125 73.484375 
Q 48.484375 72.75 52.59375 71.296875 
z
" id="DejaVuSans-54"/>
      </defs>
      <g transform="translate(13.6375 68.272081)scale(0.1 -0.1)">
       <use xlink:href="#DejaVuSans-54"/>
      </g>
     </g>
    </g>
    <g id="ytick_5">
     <g id="line2d_8">
      <g>
       <use style="stroke:#000000;stroke-width:0.8;" x="27" xlink:href="#m3c9d2669c1" y="30.663497"/>
      </g>
     </g>
     <g id="text_8">
      <!-- 8 -->
      <defs>
       <path d="M 31.78125 34.625 
Q 24.75 34.625 20.71875 30.859375 
Q 16.703125 27.09375 16.703125 20.515625 
Q 16.703125 13.921875 20.71875 10.15625 
Q 24.75 6.390625 31.78125 6.390625 
Q 38.8125 6.390625 42.859375 10.171875 
Q 46.921875 13.96875 46.921875 20.515625 
Q 46.921875 27.09375 42.890625 30.859375 
Q 38.875 34.625 31.78125 34.625 
z
M 21.921875 38.8125 
Q 15.578125 40.375 12.03125 44.71875 
Q 8.5 49.078125 8.5 55.328125 
Q 8.5 64.0625 14.71875 69.140625 
Q 20.953125 74.21875 31.78125 74.21875 
Q 42.671875 74.21875 48.875 69.140625 
Q 55.078125 64.0625 55.078125 55.328125 
Q 55.078125 49.078125 51.53125 44.71875 
Q 48 40.375 41.703125 38.8125 
Q 48.828125 37.15625 52.796875 32.3125 
Q 56.78125 27.484375 56.78125 20.515625 
Q 56.78125 9.90625 50.3125 4.234375 
Q 43.84375 -1.421875 31.78125 -1.421875 
Q 19.734375 -1.421875 13.25 4.234375 
Q 6.78125 9.90625 6.78125 20.515625 
Q 6.78125 27.484375 10.78125 32.3125 
Q 14.796875 37.15625 21.921875 38.8125 
z
M 18.3125 54.390625 
Q 18.3125 48.734375 21.84375 45.5625 
Q 25.390625 42.390625 31.78125 42.390625 
Q 38.140625 42.390625 41.71875 45.5625 
Q 45.3125 48.734375 45.3125 54.390625 
Q 45.3125 60.0625 41.71875 63.234375 
Q 38.140625 66.40625 31.78125 66.40625 
Q 25.390625 66.40625 21.84375 63.234375 
Q 18.3125 60.0625 18.3125 54.390625 
z
" id="DejaVuSans-56"/>
      </defs>
      <g transform="translate(13.6375 34.462716)scale(0.1 -0.1)">
       <use xlink:href="#DejaVuSans-56"/>
      </g>
     </g>
    </g>
   </g>
   <g id="patch_3">
    <path d="M 27 189 
L 27 25.92 
" style="fill:none;stroke:#000000;stroke-linecap:square;stroke-linejoin:miter;stroke-width:0.8;"/>
   </g>
   <g id="patch_4">
    <path d="M 194.4 189 
L 194.4 25.92 
" style="fill:none;stroke:#000000;stroke-linecap:square;stroke-linejoin:miter;stroke-width:0.8;"/>
   </g>
   <g id="patch_5">
    <path d="M 27 189 
L 194.4 189 
" style="fill:none;stroke:#000000;stroke-linecap:square;stroke-linejoin:miter;stroke-width:0.8;"/>
   </g>
   <g id="patch_6">
    <path d="M 27 25.92 
L 194.4 25.92 
" style="fill:none;stroke:#000000;stroke-linecap:square;stroke-linejoin:miter;stroke-width:0.8;"/>
   </g>
  </g>
 </g>
 <defs>
  <clipPath id="p32db4fba27">
   <rect height="163.08" width="167.4" x="27" y="25.92"/>
  </clipPath>
 </defs>
</svg>
